<svg xmlns="http://www.w3.org/2000/svg" viewBox="0 0 128 128" role="img" aria-label="HerdFlow favicon">
  <rect width="128" height="128" fill="#24462D" />
  <rect x="6" y="6" width="116" height="116" rx="28" fill="#2F5D3A" />
  <path fill="#F5F1E8" d="M36 44 20 34q-6-4-4-11l2-5q2-7 10-4l18 7q5 2 6 7v12q0 8-7 8Z" />
  <path fill="#F5F1E8" d="m92 44 16-10q6-4 4-11l-2-5q-2-7-10-4l-18 7q-5 2-6 7v12q0 8 7 8Z" />
  <path
    fill="#F5F1E8"
    d="M43 24h42q17 0 17 17v34q0 11-7 19L83 106q-7 7-19 7t-19-7L33 94q-7-8-7-19V41q0-17 17-17Z"
  />
  <rect x="42" y="70" width="44" height="22" rx="11" fill="#2F5D3A" />
  <circle cx="49" cy="54" r="5" fill="#2F5D3A" />
  <circle cx="79" cy="54" r="5" fill="#2F5D3A" />
  <rect x="53" y="77" width="6" height="9" rx="3" fill="#F5F1E8" />
  <rect x="69" y="77" width="6" height="9" rx="3" fill="#F5F1E8" />
</svg>
